<svg data-tag="IconMug" xmlns="http://www.w3.org/2000/svg" viewBox="0 0 24 24"><path d="M18 10.5h-.433c-.434 0-.66-.02-.823-.137-.163-.117-.263-.334-.445-.728-.147-.316-.4-.474-.84-.554C15.018 9 14.391 9 13.498 9h-6C6 9 5.25 9 4.876 9.375 4.5 9.75 4.5 10.5 4.5 12v3c0 1.967.517 3.467 1.525 4.475C7.033 20.483 8.533 21 10.5 21c1.215 0 2.25-.198 3.103-.587.852-.39 1.52-.97 1.998-1.736.207-.332.325-.5.488-.587.163-.087.372-.09.764-.09H18c1.212 0 2.15-.331 2.784-.966.635-.634.966-1.572.966-2.784 0-1.212-.331-2.15-.966-2.784-.634-.635-1.572-.966-2.784-.966m0 5.25c-.75 0-1.125.001-1.312-.185-.187-.187-.187-.561-.187-1.311v-.042c0-.73-.001-1.096.181-1.28.183-.182.548-.182 1.28-.182H18c.485 0 .86.132 1.114.386.254.254.386.629.386 1.114 0 .485-.132.86-.386 1.114-.254.253-.63.386-1.114.386M6.375 6.375c0-1.197.152-1.947.602-2.398.451-.45 1.201-.602 2.398-.602h2.25c.3 0 .487-.038.6-.15.112-.113.15-.3.15-.6 0-.449.057-.73.226-.9.169-.168.45-.225.899-.225s.73.057.9.226c.168.169.225.45.225.899 0 1.197-.152 1.947-.602 2.398-.451.45-1.201.602-2.398.602h-2.25c-.3 0-.487.038-.6.15-.112.113-.15.3-.15.6 0 .449-.057.73-.226.9-.169.168-.45.225-.899.225s-.73-.057-.9-.226c-.168-.169-.225-.45-.225-.899"></path></svg>