<svg data-tag="IconPodcast" xmlns="http://www.w3.org/2000/svg" viewBox="0 0 24 24"><path d="M9 10.875V5.25c0-1.2.15-1.95.6-2.4.45-.45 1.2-.6 2.4-.6s1.95.15 2.4.6c.45.45.6 1.2.6 2.4v5.625c0 1.2-.15 1.95-.6 2.4-.45.45-1.2.6-2.4.6s-1.95-.15-2.4-.6c-.45-.45-.6-1.2-.6-2.4m8.625-1.125c-.45 0-.732.056-.9.225-.169.168-.225.45-.225.9 0 1.8-.225 2.926-.9 3.6-.674.675-1.8.9-3.6.9s-2.926-.225-3.6-.9c-.676-.674-.9-1.8-.9-3.6 0-.45-.056-.732-.225-.9-.169-.169-.45-.225-.9-.225s-.731.056-.9.225c-.169.168-.225.45-.225.9 0 2.398.266 3.996 1.034 5.033.768 1.037 2.038 1.511 4.047 1.661.2.015.336.062.422.155.086.093.122.233.122.434 0 .214-.041.362-.136.456-.094.095-.242.136-.456.136H7.875c-.45 0-.731.056-.9.225-.169.168-.225.45-.225.9s.056.731.225.9c.169.169.45.225.9.225h8.25c.45 0 .732-.056.9-.225.169-.169.225-.45.225-.9s-.056-.732-.225-.9c-.168-.17-.45-.225-.9-.225h-2.408c-.214 0-.362-.041-.456-.136-.095-.094-.136-.242-.136-.456 0-.201.036-.34.122-.434.086-.093.222-.14.422-.155 2.009-.15 3.279-.624 4.047-1.66.768-1.038 1.034-2.636 1.034-5.034 0-.45-.056-.732-.225-.9-.168-.169-.45-.225-.9-.225m4.29-2.022c-.29-.419-.542-.64-.812-.667-.27-.026-.556.142-.917.503-.282.282-.424.481-.439.692-.014.211.098.434.324.762A5.228 5.228 0 0 1 21 12a5.247 5.247 0 0 1-.929 2.983c-.227.327-.339.55-.324.76.015.212.157.411.439.693.36.361.648.53.917.503.27-.027.521-.248.812-.667A7.471 7.471 0 0 0 23.25 12a7.47 7.47 0 0 0-1.334-4.272M3 12a5.25 5.25 0 0 1 .929-2.982c.226-.328.339-.55.324-.762-.016-.21-.157-.41-.44-.692-.36-.36-.647-.53-.916-.503-.27.027-.522.248-.812.667A7.474 7.474 0 0 0 .75 12a7.471 7.471 0 0 0 1.335 4.272c.29.418.542.64.812.666.27.027.556-.142.917-.502.282-.282.424-.482.439-.693.014-.21-.098-.433-.324-.761A5.23 5.23 0 0 1 3 12"></path></svg>